<?xml version="1.0" encoding="UTF-8"?>
<svg xmlns="http://www.w3.org/2000/svg" xmlns:xlink="http://www.w3.org/1999/xlink" width="183pt" height="72pt" viewBox="0 0 183 72" version="1.1">
<g id="surface1">
<path style="fill-rule:nonzero;fill:rgb(70%,80%,100%);fill-opacity:1;stroke-width:0.0333333;stroke-linecap:butt;stroke-linejoin:miter;stroke:rgb(46.666667%,53.333333%,66.666667%);stroke-opacity:1;stroke-miterlimit:10;" d="M 0 0 L 6 0 L 6 2.3 L 0 2.3 Z M 0 0 " transform="matrix(30,0,0,30,1.5,1.5)"/>
<path style=" stroke:none;fill-rule:nonzero;fill:rgb(0%,0%,0%);fill-opacity:0.4;" d="M 12.5 12.5 L 63.5 12.5 L 63.5 63.5 L 12.5 63.5 Z M 72.5 12.5 L 174.5 12.5 L 174.5 63.5 L 72.5 63.5 Z M 72.5 12.5 "/>
<path style="fill-rule:nonzero;fill:rgb(16.078431%,50.196078%,72.54902%);fill-opacity:1;stroke-width:0.0333333;stroke-linecap:butt;stroke-linejoin:miter;stroke:rgb(0%,0%,0%);stroke-opacity:1;stroke-miterlimit:10;" d="M 0.3 0.3 L 2 0.3 L 2 2 L 0.3 2 Z M 2.3 0.3 L 5.7 0.3 L 5.7 2 L 2.3 2 Z M 2.3 0.3 " transform="matrix(30,0,0,30,1.5,1.5)"/>
</g>
</svg>
