<?xml version="1.0" encoding="UTF-8"?>
<svg xmlns="http://www.w3.org/2000/svg" xmlns:xlink="http://www.w3.org/1999/xlink" width="183pt" height="63pt" viewBox="0 0 183 63" version="1.1">
<g id="surface5">
<path style="fill-rule:nonzero;fill:rgb(70%,80%,100%);fill-opacity:1;stroke-width:0.0333333;stroke-linecap:butt;stroke-linejoin:miter;stroke:rgb(46.666667%,53.333333%,66.666667%);stroke-opacity:1;stroke-miterlimit:10;" d="M 0 0 L 6 0 L 6 2 L 0 2 Z M 0 0 " transform="matrix(30,0,0,30,1.5,1.5)"/>
<path style=" stroke:none;fill-rule:nonzero;fill:rgb(0%,0%,0%);fill-opacity:0.4;" d="M 3.5 3.5 L 123.5 3.5 L 123.5 63.5 L 3.5 63.5 Z M 132.5 3.5 L 183.5 3.5 L 183.5 63.5 L 132.5 63.5 Z M 132.5 3.5 "/>
<path style="fill-rule:nonzero;fill:rgb(16.078431%,50.196078%,72.54902%);fill-opacity:1;stroke-width:0.0333333;stroke-linecap:butt;stroke-linejoin:miter;stroke:rgb(0%,0%,0%);stroke-opacity:1;stroke-miterlimit:10;" d="M 0 0 L 4 0 L 4 2 L 0 2 Z M 4.3 0 L 6 0 L 6 2 L 4.3 2 Z M 4.3 0 " transform="matrix(30,0,0,30,1.5,1.5)"/>
</g>
</svg>
